# xmcd
#
# Track frame offsets:
#	150
#	14065
#	32895
#	47755
#	64947
#	80422
#	96335
#	113252
#	125332
#	141132
#
# Disc length: 2097 seconds
#
# Revision: 0
# Processed by: cddbd v1.5.1PL2 Copyright (c) Steve Scherf et al.
# Submitted via: dBpowerAMP V4.0
#
DISCID=84082f0a
DTITLE=Tanya Tucker - The Legendary
DYEAR=1998
DGENRE=Country
TTITLE0=If Your Heart Ain't Busy Tonight
TTITLE1=Two Sparrows In A Hurricane
TTITLE2=Don't Go Out (Duet With T. Graham Brown)
TTITLE3=We Don't Have To Do This
TTITLE4=Hangin' In
TTITLE5=Down To My Last Teardrop
TTITLE6=Tell Me About It (Duet With Delbert McClinton)
TTITLE7=It's A Little Too Late
TTITLE8=Soon
TTITLE9=My Arms Stay Open All Night
EXTD=
EXTT0=
EXTT1=
EXTT2=
EXTT3=
EXTT4=
EXTT5=
EXTT6=
EXTT7=
EXTT8=
EXTT9=
PLAYORDER=
